<?xml version="1.0" encoding="iso-8859-1"?>
<!-- Generator: Adobe Illustrator 19.0.0, SVG Export Plug-In . SVG Version: 6.00 Build 0)  -->
<svg version="1.1" id="Capa_1" xmlns="http://www.w3.org/2000/svg" xmlns:xlink="http://www.w3.org/1999/xlink" x="0px" y="0px"
	 viewBox="0 0 411.6 411.6" style="enable-background:new 0 0 411.6 411.6;" xml:space="preserve">
<g>
	<g>
		<g>
			<path d="M52,192.015H38.4c-3.2,0-6,2.8-5.6,5.6v13.6c0,3.2,2.4,5.6,5.6,5.6H52c3.2,0,5.6-2.4,5.6-5.6v-13.6
				C57.6,194.415,55.2,192.015,52,192.015z"/>
			<path d="M132,269.215h-13.6c-3.2,0-5.6,2.8-5.6,5.6v13.6c0,3.2,2.4,5.6,5.6,5.6H132c3.2,0,5.6-2.4,5.6-5.6v-13.6
				C137.6,271.615,135.2,269.215,132,269.215z"/>
			<path d="M92,269.215H78.4c-3.2,0-6,2.8-5.6,5.6v13.6c0,3.2,2.4,5.6,5.6,5.6H92c3.2,0,5.6-2.4,5.6-5.6v-13.6
				C97.6,271.615,95.2,269.215,92,269.215z"/>
			<path d="M52,230.415H38.4c-3.2,0-6,2.8-5.6,5.6v13.6c0,3.2,2.4,5.6,5.6,5.6H52c3.2,0,5.6-2.4,5.6-5.6v-13.6
				C57.6,232.815,55.2,230.415,52,230.415z"/>
			<path d="M92,230.415H78.4c-3.2,0-6,2.8-5.6,5.6v13.6c0,3.2,2.4,5.6,5.6,5.6H92c3.2,0,5.6-2.4,5.6-5.6v-13.6
				C97.6,232.815,95.2,230.415,92,230.415z"/>
			<path d="M92,192.015H78.4c-3.2,0-6,2.8-5.6,5.6v13.6c0,3.2,2.4,5.6,5.6,5.6H92c3.2,0,5.6-2.4,5.6-5.6v-13.6
				C97.6,194.415,95.2,192.015,92,192.015z"/>
			<path d="M198.4,255.215H212c3.2,0,5.6-2.4,5.6-5.6v-13.6c0-3.2-2.4-5.6-5.6-5.6h-13.6c-3.2,0-5.6,2.8-5.6,5.6v13.6
				C192.8,252.815,195.2,255.215,198.4,255.215z"/>
			<path d="M52,269.215H38.4c-3.2,0-6,2.8-5.6,5.6v13.6c0,3.2,2.4,5.6,5.6,5.6H52c3.2,0,5.6-2.4,5.6-5.6v-13.6
				C57.6,271.615,55.2,269.215,52,269.215z"/>
			<path d="M324,211.215c0,3.2,2.4,5.6,5.6,5.6h35.6c3.2,0,5.6-2.4,5.6-5.6v-13.6c0-3.2-2.4-5.6-5.6-5.6h-35.6c-3.2,0-6,2.8-5.6,5.6
				V211.215z"/>
			<path d="M198.4,216.815H212c3.2,0,5.6-2.4,5.6-5.6v-13.6c0-3.2-2.4-5.6-5.6-5.6h-13.6c-3.2,0-5.6,2.8-5.6,5.6v13.6
				C192.8,214.415,195.2,216.815,198.4,216.815z"/>
			<path d="M158.4,255.215H172c3.2,0,5.6-2.4,5.6-5.6v-13.6c0-3.2-2.4-5.6-5.6-5.6h-13.6c-3.2,0-5.6,2.8-5.6,5.6v13.6
				C152.8,252.815,155.2,255.215,158.4,255.215z"/>
			<path d="M158.4,216.815H172c3.2,0,5.6-2.4,5.6-5.6v-13.6c0-3.2-2.4-5.6-5.6-5.6h-13.6c-3.2,0-5.6,2.8-5.6,5.6v13.6
				C152.8,214.415,155.2,216.815,158.4,216.815z"/>
			<path d="M252,192.015h-13.6c-3.2,0-5.6,2.8-5.6,5.6v13.6c0,3.2,2.4,5.6,5.6,5.6H252c3.2,0,5.6-2.4,5.6-5.6v-13.6
				C257.6,194.415,255.2,192.015,252,192.015z"/>
			<path d="M334.8,230.415h-13.6c-3.2,0-6,2.8-5.6,5.6v13.6c0,3.2,2.4,5.6,5.6,5.6h13.6c3.2,0,5.6-2.4,5.6-5.6v-13.6
				C340.4,232.815,338,230.415,334.8,230.415z"/>
			<path d="M334.8,269.215h-13.6c-3.2,0-6,2.8-5.6,5.6v13.6c0,3.2,2.4,5.6,5.6,5.6h13.6c3.2,0,5.6-2.4,5.6-5.6v-13.6
				C340.4,271.615,338,269.215,334.8,269.215z"/>
			<path d="M292,192.015h-13.6c-3.2,0-5.6,2.8-5.6,5.6v13.6c0,3.2,2.4,5.6,5.6,5.6H292c3.2,0,5.6-2.4,5.6-5.6v-13.6
				C297.6,194.415,295.2,192.015,292,192.015z"/>
			<path d="M132,230.415h-13.6c-3.2,0-5.6,2.8-5.6,5.6v13.6c0,3.2,2.4,5.6,5.6,5.6H132c3.2,0,5.6-2.4,5.6-5.6v-13.6
				C137.6,232.815,135.2,230.415,132,230.415z"/>
			<path d="M374,230.415h-13.6c-3.2,0-6,2.8-5.6,5.6v13.6c0,3.2,2.4,5.6,5.6,5.6H374c3.2,0,5.6-2.4,5.6-5.6v-13.6
				C379.6,232.815,377.2,230.415,374,230.415z"/>
			<path d="M402.8,168.015l-0.4-0.4c-6-6-14-9.6-22.8-9.6H214c2.4-16.4,20-21.2,37.6-26.4c23.2-6.8,46.4-13.2,48-40
				c0.4-4.8-3.2-8.4-7.6-8.8c-4.8-0.4-8.4,3.2-8.8,7.6c-0.8,15.2-18.4,20-36,25.2c-24.4,6.8-49.2,14-50,42.4H32.4
				c-8.8,0-16.8,3.6-22.8,9.6s-9.6,14-9.6,22.8v106c0,8.8,3.6,16.8,9.6,22.8c6,6,14,9.6,22.8,9.6h346.8c8.8,0,16.8-3.6,22.8-9.6
				s9.6-14,9.6-22.8v-106C411.6,181.615,408.4,174.015,402.8,168.015z M395.2,296.015c0,4.4-1.6,8.4-4.4,11.2
				c-2.8,3.2-6.8,4.8-11.2,4.8H32.4c-4.4,0-8.4-1.6-11.2-4.4c-2.8-2.8-4.4-6.8-4.4-11.2v-106c0-4.4,1.6-8.4,4.4-11.2
				c2.8-3.2,6.8-4.8,11.2-4.8h347.2c4.4,0,8.4,2,10.8,4.8l0.4,0.4c2.8,2.8,4.4,6.8,4.4,10.8V296.015z"/>
			<path d="M374,269.215h-13.6c-3.2,0-6,2.8-5.6,5.6v13.6c0,3.2,2.4,5.6,5.6,5.6H374c3.2,0,5.6-2.4,5.6-5.6v-13.6
				C379.6,271.615,377.2,269.215,374,269.215z"/>
			<path d="M132,192.015h-13.6c-3.2,0-5.6,2.8-5.6,5.6v13.6c0,3.2,2.4,5.6,5.6,5.6H132c3.2,0,5.6-2.4,5.6-5.6v-13.6
				C137.6,194.415,135.2,192.015,132,192.015z"/>
			<path d="M292,230.415h-13.6c-3.2,0-5.6,2.8-5.6,5.6v13.6c0,3.2,2.4,5.6,5.6,5.6H292c3.2,0,5.6-2.4,5.6-5.6v-13.6
				C297.6,232.815,295.2,230.415,292,230.415z"/>
			<path d="M245.6,269.215h-87.2c-3.2,0-5.6,2.8-5.6,5.6v13.6c0,3.2,2.4,5.6,5.6,5.6h87.2c3.2,0,5.6-2.4,5.6-5.6v-13.6
				C251.2,271.615,248.8,269.215,245.6,269.215z"/>
			<path d="M252,230.415h-13.6c-3.2,0-5.6,2.8-5.6,5.6v13.6c0,3.2,2.4,5.6,5.6,5.6H252c3.2,0,5.6-2.4,5.6-5.6v-13.6
				C257.6,232.815,255.2,230.415,252,230.415z"/>
			<path d="M292,269.215h-13.6c-3.2,0-5.6,2.8-5.6,5.6v13.6c0,3.2,2.4,5.6,5.6,5.6H292c3.2,0,5.6-2.4,5.6-5.6v-13.6
				C297.6,271.615,295.2,269.215,292,269.215z"/>
		</g>
	</g>
</g>
<g>
</g>
<g>
</g>
<g>
</g>
<g>
</g>
<g>
</g>
<g>
</g>
<g>
</g>
<g>
</g>
<g>
</g>
<g>
</g>
<g>
</g>
<g>
</g>
<g>
</g>
<g>
</g>
<g>
</g>
</svg>
